<svg version="1.1" id="レイヤー_1" xmlns="http://www.w3.org/2000/svg" x="0" y="0" viewBox="0 0 50 50" xml:space="preserve"><style/><linearGradient id="SVGID_1_" gradientUnits="userSpaceOnUse" x1="69.416" y1="64.762" x2="-25.736" y2="-59.225"><stop offset=".007" stop-color="#44b444"/><stop offset=".226" stop-color="#60ba3c"/><stop offset=".558" stop-color="#84c231"/><stop offset=".828" stop-color="#9bc62a"/><stop offset="1" stop-color="#a3c828"/></linearGradient><path d="M23.893 38.052h-.09a3.927 3.927 0 01-3.071-1.629l-9.564-13.28c-1.282-1.776-.912-4.279.831-5.586a3.874 3.874 0 015.482.856l6.557 9.093L43.029 3.237a3.867 3.867 0 015.509-.607c1.689 1.38 1.951 3.902.596 5.614L26.945 36.561a3.874 3.874 0 01-3.052 1.491z" fill="url(#SVGID_1_)"/><linearGradient id="SVGID_00000059275328476805979300000000587354187737392787_" gradientUnits="userSpaceOnUse" x1="55.27" y1="75.463" x2="-39.769" y2="-48.376"><stop offset=".007" stop-color="#44b444"/><stop offset=".226" stop-color="#60ba3c"/><stop offset=".558" stop-color="#84c231"/><stop offset=".828" stop-color="#9bc62a"/><stop offset="1" stop-color="#a3c828"/></linearGradient><path d="M45.137 50H3.919C1.752 50 0 48.215 0 46.006V4.003C0 1.795 1.752 0 3.919 0H29.17c2.167 0 3.919 1.795 3.919 4.003 0 2.2-1.752 3.994-3.919 3.994H7.839v34.014h33.378V28.539c0-2.2 1.752-3.994 3.92-3.994 2.167 0 3.919 1.795 3.919 3.994v17.467c0 2.209-1.752 3.994-3.919 3.994z" fill="url(#SVGID_00000059275328476805979300000000587354187737392787_)"/></svg>