<svg version="1.1" id="レイヤー_1" xmlns="http://www.w3.org/2000/svg" x="0" y="0" viewBox="0 0 20 3" xml:space="preserve"><path d="M14.997 3c-1.426 0-2.163-.589-2.813-1.109C11.586 1.413 11.07 1 9.995 1s-1.591.413-2.188.891C7.157 2.411 6.42 3 4.995 3c-1.424 0-2.161-.589-2.81-1.11C1.588 1.413 1.073 1 0 1V0c1.424 0 2.161.589 2.81 1.11.597.477 1.112.89 2.185.89 1.074 0 1.59-.413 2.187-.89C7.833.589 8.569 0 9.995 0s2.164.589 2.814 1.109c.597.478 1.113.891 2.188.891 1.076 0 1.592-.413 2.189-.891C17.837.589 18.574 0 20 0v1c-1.075 0-1.591.413-2.188.89-.651.521-1.388 1.11-2.815 1.11z" fill="#fff34b"/></svg>