<svg xmlns="http://www.w3.org/2000/svg" width="70" height="70"><g id="icon-faq_sp"><path id="icon-faq.svg" d="M780.878 583.046a13.506 13.506 0 017.045-1.388c2.553.278 4.719 1.591 4.394 4.518-.231 2.085-1.544 3.288-4.368 5.045-2.879 1.841-3.976 4.37-4.434 8.493l5.733.625c.335-3.016 1.045-4.509 4.233-6.272a9.507 9.507 0 005.449-7.845c.616-5.543-2.718-9.406-9.078-10.1-3-.327-7.15-.106-9.846 1.306zm1.59 22.015l-.8 7.184 6.945.755.8-7.184z" transform="translate(-754 -560)" fill="#bebebe" fill-rule="evenodd"/></g></svg>