<svg xmlns="http://www.w3.org/2000/svg" width="70" height="70"><defs><filter id="filter" x="765.781" y="339.469" width="17.25" height="15.625" filterUnits="userSpaceOnUse"><feFlood result="flood" flood-color="#bebebe"/><feComposite result="composite" operator="in" in2="SourceGraphic"/><feBlend result="blend" in2="SourceGraphic"/><feGaussianBlur result="blur" stdDeviation="1" in="SourceAlpha"/><feFlood result="flood-2" flood-color="#040000" flood-opacity=".5"/><feComposite result="composite-2" operator="out" in2="blur"/><feOffset result="offset" dx=".5" dy=".866"/><feComposite result="composite-3" operator="in" in2="SourceAlpha"/><feBlend result="blend-2" mode="overlay" in2="blend"/></filter><filter id="filter-2" x="793.938" y="339.094" width="16.531" height="18.062" filterUnits="userSpaceOnUse"><feFlood result="flood" flood-color="#bebebe"/><feComposite result="composite" operator="in" in2="SourceGraphic"/><feBlend result="blend" in2="SourceGraphic"/><feGaussianBlur result="blur" stdDeviation="1" in="SourceAlpha"/><feFlood result="flood-2" flood-color="#040000" flood-opacity=".5"/><feComposite result="composite-2" operator="out" in2="blur"/><feOffset result="offset" dx=".5" dy=".866"/><feComposite result="composite-3" operator="in" in2="SourceAlpha"/><feBlend result="blend-2" mode="overlay" in2="blend"/></filter><filter id="filter-3" x="774.25" y="365.156" width="6.531" height="18.844" filterUnits="userSpaceOnUse"><feFlood result="flood" flood-color="#bebebe"/><feComposite result="composite" operator="in" in2="SourceGraphic"/><feBlend result="blend" in2="SourceGraphic"/><feGaussianBlur result="blur" stdDeviation="1" in="SourceAlpha"/><feFlood result="flood-2" flood-color="#040000" flood-opacity=".5"/><feComposite result="composite-2" operator="out" in2="blur"/><feOffset result="offset" dx=".5" dy=".866"/><feComposite result="composite-3" operator="in" in2="SourceAlpha"/><feBlend result="blend-2" mode="overlay" in2="blend"/></filter><filter id="filter-4" x="797.406" y="367.094" width="10.719" height="15.5" filterUnits="userSpaceOnUse"><feFlood result="flood" flood-color="#bebebe"/><feComposite result="composite" operator="in" in2="SourceGraphic"/><feBlend result="blend" in2="SourceGraphic"/><feGaussianBlur result="blur" stdDeviation="1" in="SourceAlpha"/><feFlood result="flood-2" flood-color="#040000" flood-opacity=".5"/><feComposite result="composite-2" operator="out" in2="blur"/><feOffset result="offset" dx=".5" dy=".866"/><feComposite result="composite-3" operator="in" in2="SourceAlpha"/><feBlend result="blend-2" mode="overlay" in2="blend"/></filter><style>.cls-1{fill:#fff;stroke:#bdbdbd;stroke-linejoin:round;stroke-width:2px;fill-rule:evenodd}</style></defs><g id="icon-faq"><g id="icon-"><path id="シェイプ_1" data-name="シェイプ 1" class="cls-1" d="M776.418 334.175a4.7 4.7 0 00-3.854-1.263A4.646 4.646 0 00770 334.1a4.676 4.676 0 00-5.82 2.664 4.593 4.593 0 00-3.959 4.514 4.5 4.5 0 00.193 1.3 4.525 4.525 0 00-.729 7.527 4.468 4.468 0 00-.482 2.015 4.592 4.592 0 003.762 4.483 4.634 4.634 0 005.236 4.114 5.15 5.15 0 00.355-.059 4.693 4.693 0 006.351.534 4.75 4.75 0 002.37.31 4.663 4.663 0 003.593-2.562c.083 0 .165 0 .25-.015a4.529 4.529 0 004.045-4.565 4.569 4.569 0 002.263-3.349 4.5 4.5 0 00-.46-2.647 4.433 4.433 0 00.735-1.921 4.526 4.526 0 00-1.876-4.281v-.029a4.579 4.579 0 00-3.768-5.081 4.664 4.664 0 00-4.994-3.009 4.762 4.762 0 00-.647.132z" transform="translate(-754 -325)"/><path id="シェイプ_1_のコピー" data-name="シェイプ 1 のコピー" class="cls-1" d="M807.4 332.571a5.631 5.631 0 00-4.625-1.517 5.555 5.555 0 00-3.072 1.426 5.67 5.67 0 00-1.786-.292 5.58 5.58 0 00-5.2 3.488 5.513 5.513 0 00-4.751 5.417 5.412 5.412 0 00.232 1.56 5.428 5.428 0 00-.875 9.031 5.366 5.366 0 00-.578 2.419 5.513 5.513 0 004.514 5.381 5.563 5.563 0 006.283 4.937c.144-.02.286-.045.427-.073a5.631 5.631 0 007.62.64 5.71 5.71 0 002.844.373 5.59 5.59 0 004.312-3.072c.1-.008.2-.008.3-.02a5.548 5.548 0 004.813-4.726 5.626 5.626 0 00.042-.751 5.492 5.492 0 002.716-4.018 5.4 5.4 0 00-.553-3.178 5.324 5.324 0 00.882-2.306 5.43 5.43 0 00-2.251-5.136c0-.013 0-.023.006-.035a5.494 5.494 0 00-4.521-6.1 5.6 5.6 0 00-5.994-3.612 5.291 5.291 0 00-.785.164z" transform="translate(-754 -325)"/><path id="シェイプ_1_のコピー_3" data-name="シェイプ 1 のコピー 3" class="cls-1" d="M774.459 359.768a5.088 5.088 0 014.163-1.365 5.027 5.027 0 012.766 1.283 5.117 5.117 0 011.608-.262 5.026 5.026 0 014.68 3.137 4.961 4.961 0 014.277 4.872 4.828 4.828 0 01-.21 1.4 4.88 4.88 0 01.789 8.123 4.827 4.827 0 01.52 2.175 4.959 4.959 0 01-4.064 4.84 5.007 5.007 0 01-5.656 4.44 4.805 4.805 0 01-.384-.065 5.07 5.07 0 01-4.393 1.607 5.007 5.007 0 01-2.468-1.032 5.115 5.115 0 01-2.56.337 5.037 5.037 0 01-3.882-2.765c-.09 0-.179 0-.27-.017a4.99 4.99 0 01-4.332-4.25 4.851 4.851 0 01-.037-.677 4.932 4.932 0 01-2.446-3.612 4.853 4.853 0 01.5-2.859 4.792 4.792 0 01-.795-2.074 4.891 4.891 0 012.027-4.622.234.234 0 010-.03 4.943 4.943 0 014.07-5.484 5.042 5.042 0 015.4-3.249 5.35 5.35 0 01.697.149z" transform="translate(-754 -325)"/><path id="シェイプ_1_のコピー_3-2" data-name="シェイプ 1 のコピー 3" class="cls-1" d="M800.5 360.887a25.956 25.956 0 007.868-.324 7.216 7.216 0 018.061 8.839 4.63 4.63 0 01.726 7.628 4.622 4.622 0 01-3.266 6.587 4.633 4.633 0 01-5.212 4.171 4.588 4.588 0 01-.354-.061 4.62 4.62 0 01-4.049 1.508 4.567 4.567 0 01-2.273-.968 4.615 4.615 0 01-5.937-2.279c-.083-.007-.165-.007-.248-.018a4.641 4.641 0 01-3.993-3.99 4.925 4.925 0 01-.035-.637 4.621 4.621 0 01-1.795-6.076 4.56 4.56 0 01-.732-1.947 4.626 4.626 0 011.868-4.34v-.029a15.71 15.71 0 018.724-8.2 4.438 4.438 0 01.647.136z" transform="translate(-754 -325)"/><path id="Q" d="M780.385 350.933a8.173 8.173 0 00.311-5.6c-1.35-4.964-5.52-6.6-9.327-5.6-3.733.986-6.607 4.405-5.232 9.46 1.379 5.073 5.6 6.6 9.332 5.615a8.136 8.136 0 003.508-1.956l2.842 1.464 1.2-2.045zm-5.5-2.821l-1.162 2.035 2.433 1.261a3.962 3.962 0 01-1.429.688c-1.453.384-4.1.227-5.191-3.8-1.119-4.113 1.227-5.489 2.569-5.844 1.379-.364 4.077-.3 5.191 3.8a5.645 5.645 0 01.156 3.183z" transform="translate(-754 -325)" fill="#06345f" filter="url(#filter)" fill-rule="evenodd"/><path id="A" d="M805.894 353.418l.581 3.2 3.985.54-3.787-17.464-4.308-.583-8.426 15.811 3.985.539 1.434-2.925zm-5.311-3.408l3.425-7.022 1.376 7.672z" transform="translate(-754 -325)" fill="#003c74" filter="url(#filter-2)" fill-rule="evenodd"/><path id="_" data-name="!" d="M774.255 383.466l3.984.539.547-3.925-3.983-.539zm2.552-18.3l-.755 5.411-.1 6.942 2.263.307 1.824-6.71.754-5.411z" transform="translate(-754 -325)" fill="#00673a" filter="url(#filter-3)" fill-rule="evenodd"/><path id="_2" data-name="?" d="M803.861 382.582l3.108-.82-.833-3.062-3.108.82zm1.768-5.457l-.1-.362c-.295-1.087.051-1.626 1.1-2.972 1.342-1.733 1.751-2.695 1.406-3.963-.542-1.993-2.892-3.315-6.166-2.45a6.028 6.028 0 00-4.206 3.3 4.454 4.454 0 00-.138 2.755l3.439-.908a1.787 1.787 0 011.5-2.395c.46-.121 1.877-.418 2.168.651.207.761-.376 1.517-1.491 3a3.152 3.152 0 00-.766 3.057l.291 1.069z" transform="translate(-754 -325)" fill="#055532" filter="url(#filter-4)" fill-rule="evenodd"/></g></g></svg>