<?xml version="1.0" encoding="utf-8"?>
<!-- Generator: Adobe Illustrator 26.1.0, SVG Export Plug-In . SVG Version: 6.00 Build 0)  -->
<svg version="1.1" id="レイヤー_1" xmlns="http://www.w3.org/2000/svg" xmlns:xlink="http://www.w3.org/1999/xlink" x="0px"
	 y="0px" viewBox="0 0 50 50" style="enable-background:new 0 0 50 50;" xml:space="preserve">
<style type="text/css">
	.st0{fill:url(#SVGID_1_);}
	.st1{fill:url(#SVGID_00000138536378262859436640000000207518339836323481_);}
</style>
<g>
	<linearGradient id="SVGID_1_" gradientUnits="userSpaceOnUse" x1="69.4163" y1="64.7622" x2="-25.7365" y2="-59.2249">
		<stop  offset="0.0071" style="stop-color:#44B444"/>
		<stop  offset="0.2264" style="stop-color:#60BA3C"/>
		<stop  offset="0.5585" style="stop-color:#84C231"/>
		<stop  offset="0.8283" style="stop-color:#9BC62A"/>
		<stop  offset="1" style="stop-color:#A3C828"/>
	</linearGradient>
	<path class="st0" d="M23.893,38.052c-0.027,0-0.054,0-0.09,0c-1.21-0.028-2.348-0.635-3.071-1.629l-9.564-13.28
		c-1.282-1.776-0.912-4.279,0.831-5.586c1.752-1.307,4.208-0.92,5.482,0.856l6.557,9.093L43.029,3.237
		c1.355-1.721,3.82-1.988,5.509-0.607c1.689,1.38,1.951,3.902,0.596,5.614L26.945,36.561C26.204,37.509,25.076,38.052,23.893,38.052
		L23.893,38.052z"/>
	
		<linearGradient id="SVGID_00000059275328476805979300000000587354187737392787_" gradientUnits="userSpaceOnUse" x1="55.2702" y1="75.4634" x2="-39.7692" y2="-48.376">
		<stop  offset="0.0071" style="stop-color:#44B444"/>
		<stop  offset="0.2264" style="stop-color:#60BA3C"/>
		<stop  offset="0.5585" style="stop-color:#84C231"/>
		<stop  offset="0.8283" style="stop-color:#9BC62A"/>
		<stop  offset="1" style="stop-color:#A3C828"/>
	</linearGradient>
	<path style="fill:url(#SVGID_00000059275328476805979300000000587354187737392787_);" d="M45.137,50H3.919
		C1.752,50,0,48.215,0,46.006V4.003C0,1.795,1.752,0,3.919,0H29.17c2.167,0,3.919,1.795,3.919,4.003c0,2.2-1.752,3.994-3.919,3.994
		H7.839v34.014h33.378V28.539c0-2.2,1.752-3.994,3.92-3.994c2.167,0,3.919,1.795,3.919,3.994v17.467
		C49.056,48.215,47.304,50,45.137,50L45.137,50z"/>
</g>
</svg>
