<?xml version="1.0" encoding="utf-8"?>
<!-- Generator: Adobe Illustrator 26.1.0, SVG Export Plug-In . SVG Version: 6.00 Build 0)  -->
<svg version="1.1" id="レイヤー_1" xmlns="http://www.w3.org/2000/svg" xmlns:xlink="http://www.w3.org/1999/xlink" x="0px"
	 y="0px" viewBox="0 0 20 3" style="enable-background:new 0 0 20 3;" xml:space="preserve">
<style type="text/css">
	.st0{fill:#FF264B;}
</style>
<path class="st0" d="M14.997,3c-1.426,0-2.163-0.589-2.813-1.109C11.586,1.413,11.07,1,9.995,1S8.404,1.413,7.807,1.891
	C7.157,2.411,6.42,3,4.995,3c-1.424,0-2.161-0.589-2.81-1.11C1.588,1.413,1.073,1,0,1V0c1.424,0,2.161,0.589,2.81,1.11
	C3.407,1.587,3.922,2,4.995,2c1.074,0,1.59-0.413,2.187-0.89C7.833,0.589,8.569,0,9.995,0s2.164,0.589,2.814,1.109
	C13.406,1.587,13.922,2,14.997,2c1.076,0,1.592-0.413,2.189-0.891C17.837,0.589,18.574,0,20,0v1c-1.075,0-1.591,0.413-2.188,0.89
	C17.161,2.411,16.424,3,14.997,3z"/>
</svg>
